<svg width="38" height="23" viewBox="0 0 38 23" fill="none" xmlns="http://www.w3.org/2000/svg">
<path d="M24.6708 15.852L24.6864 15.8346C24.7057 15.8139 24.7415 15.7755 24.7931 15.7234C24.9538 15.5636 25.1211 15.4106 25.2946 15.2649C25.9322 14.7312 26.6289 14.2727 27.3711 13.8983C29.1851 12.9804 31.886 12.2314 35.4282 13.0481C36.4926 13.2935 37.5541 12.6297 37.7997 11.5655C38.0451 10.5013 37.3813 9.43952 36.3171 9.19415C31.7316 8.1369 28.0859 9.10352 25.5848 10.3702C24.5692 10.8826 23.6162 11.5106 22.7447 12.2416C22.4832 12.4614 22.2313 12.6924 21.9898 12.934C21.8961 13.0282 21.8047 13.1246 21.7157 13.2233L21.6942 13.2475L21.6867 13.2561L21.6831 13.26L21.6819 13.2614C21.6814 13.2623 21.6803 13.2632 23.1794 14.5528L21.6803 13.2632C20.9859 14.091 21.0842 15.3229 21.9011 16.03C22.718 16.7371 23.9511 16.658 24.6708 15.852ZM5.07998 1.74591C4.93245 1.51168 4.74016 1.30885 4.51412 1.14905C4.28808 0.989255 4.03273 0.875621 3.7627 0.814661C3.49268 0.753702 3.21328 0.746615 2.94051 0.793806C2.66774 0.840997 2.40696 0.941539 2.17311 1.08967C1.93912 1.23735 1.73652 1.42969 1.57688 1.65569C1.41725 1.88169 1.30371 2.13694 1.24275 2.40684C1.18179 2.67673 1.17461 2.956 1.22161 3.22867C1.26862 3.50135 1.36889 3.76209 1.51669 3.996C1.59317 4.11833 3.16052 6.65749 3.48255 10.135C3.81031 13.6682 2.77222 16.9159 0.392456 19.8281C1.19377 20.8465 2.15807 21.905 3.25956 22.9637C4.78374 21.2024 5.93055 19.3096 6.68404 17.307C7.6109 14.8433 7.93884 12.2309 7.65926 9.54322C7.21383 5.26728 5.35365 2.18024 5.07998 1.74591Z" fill="#FF598B"/>
</svg>
