<svg width="38" height="7" viewBox="0 0 38 7" fill="none" xmlns="http://www.w3.org/2000/svg">
<path d="M3.0295 6.35284C3.3109 6.35731 3.59038 6.30576 3.85167 6.20117C4.11295 6.09657 4.35081 5.94104 4.5514 5.74362C4.75198 5.54621 4.91128 5.31085 5.02002 5.05126C5.12875 4.79168 5.18475 4.51305 5.18475 4.23161C5.18475 3.95017 5.12875 3.67155 5.02002 3.41196C4.91128 3.15237 4.75198 2.91702 4.5514 2.7196C4.35081 2.52218 4.11295 2.36665 3.85167 2.26206C3.59038 2.15747 3.3109 2.10591 3.0295 2.11039C1.87051 2.12794 0.940063 3.07254 0.940063 4.2317C0.940063 5.39087 1.87051 6.33528 3.0295 6.35284ZM35.5178 4.55481C35.7987 4.55842 36.0775 4.50621 36.3381 4.40121C36.5986 4.29621 36.8357 4.14051 37.0356 3.94314C37.2355 3.74577 37.3942 3.51066 37.5025 3.25146C37.6109 2.99227 37.6666 2.71414 37.6666 2.43322C37.6665 2.1523 37.6107 1.87419 37.5023 1.61502C37.394 1.35585 37.2352 1.12078 37.0352 0.923464C36.8353 0.726145 36.5981 0.570502 36.3376 0.465567C36.077 0.360631 35.7982 0.308493 35.5173 0.312179C34.3583 0.329731 33.428 1.27451 33.428 2.43367C33.4282 3.59284 34.3588 4.53743 35.5178 4.55481Z" fill="#FF598B"/>
</svg>
