<svg width="5" height="5" viewBox="0 0 5 5" fill="none" xmlns="http://www.w3.org/2000/svg">
<path d="M2.23018 4.97947C2.51107 4.98312 2.7899 4.93095 3.05047 4.82598C3.31104 4.72101 3.54816 4.56534 3.74809 4.36799C3.94801 4.17065 4.10676 3.93556 4.2151 3.67638C4.32345 3.4172 4.37924 3.13907 4.37924 2.85816C4.37924 2.57724 4.32345 2.29912 4.2151 2.03993C4.10676 1.78075 3.94801 1.54566 3.74809 1.34832C3.54816 1.15098 3.31104 0.995303 3.05047 0.890335C2.7899 0.785366 2.51107 0.733193 2.23018 0.736843C1.07119 0.754395 0.140747 1.69899 0.140747 2.85816C0.140747 4.01732 1.07119 4.96192 2.23018 4.97947Z" fill="#59B2FF"/>
</svg>
