<svg width="13" height="19" viewBox="0 0 13 19" fill="none" xmlns="http://www.w3.org/2000/svg">
<path d="M8.24386 18.9743C7.99227 18.9743 7.744 18.9169 7.51788 18.8066C7.29176 18.6963 7.09374 18.5359 6.93883 18.3377C6.78392 18.1395 6.67619 17.9086 6.62382 17.6625C6.57145 17.4164 6.57581 17.1616 6.63657 16.9175C6.70284 16.6521 6.75693 16.3856 6.79759 16.1196C6.30053 16.3248 5.77102 16.4403 5.23365 16.4606C4.27024 16.4973 3.40768 16.3349 2.67245 15.9788C1.95197 15.6336 1.352 15.0796 0.950541 14.3889C0.159795 13.0184 0.228035 11.2155 1.1232 9.79576C1.97663 8.4403 3.42218 7.70669 4.98935 7.82651C6.19651 7.9209 7.25448 8.37296 8.10182 9.14866C8.25621 8.71319 8.40386 8.24734 8.54475 7.7511C9.41036 4.69594 9.69621 1.62806 9.69854 1.59707C9.71812 1.38053 9.78017 1.16996 9.88116 0.97741C9.98215 0.784857 10.1201 0.614092 10.2871 0.474873C10.4541 0.335654 10.6469 0.230711 10.8545 0.16604C11.0621 0.101369 11.2804 0.078238 11.4969 0.0979694C11.9342 0.137959 12.3377 0.349889 12.6188 0.687196C12.8999 1.0245 13.0355 1.4596 12.996 1.89689C12.984 2.03427 12.6794 5.30525 11.7301 8.6554C11.2508 10.347 10.6845 11.7765 10.043 12.9177C10.0902 13.1721 10.1279 13.4331 10.156 13.7008C10.2896 14.9923 10.1832 16.3827 9.84899 17.7208C9.75901 18.0785 9.5523 18.396 9.26157 18.623C8.97085 18.85 8.61271 18.9738 8.24386 18.9743ZM4.63974 11.1245C4.46851 11.1245 4.1669 11.1747 3.92403 11.5598C3.69156 11.9287 3.64606 12.4325 3.81872 12.7318C4.04833 13.13 4.72392 13.1647 5.10648 13.1502C5.54063 13.1337 5.98553 12.8615 6.42075 12.3654C6.34828 12.2135 6.26257 12.0684 6.16463 11.9316C5.80517 11.4324 5.35024 11.1772 4.73215 11.1288C4.70887 11.1274 4.67753 11.1245 4.63974 11.1245Z" fill="#59B2FF"/>
</svg>
