<svg width="30" height="13" viewBox="0 0 30 13" fill="none" xmlns="http://www.w3.org/2000/svg">
<path d="M24.4463 5.04382C25.5213 5.32196 26.2811 5.62519 26.6094 5.76632C26.9931 6.00178 27.4417 6.10923 27.8905 6.07318C28.3392 6.03712 28.7649 5.85942 29.1061 5.56573C29.3321 5.37042 29.5144 5.12967 29.6412 4.85918C29.7679 4.5887 29.8362 4.29454 29.8417 3.99587C29.8492 3.54576 29.7134 3.1049 29.4539 2.73704C29.1944 2.36917 28.8247 2.09334 28.3981 1.94943C27.3919 1.50256 23.5793 -0.00639352 18.5395 0.261726C15.1471 0.442084 11.8848 1.38166 8.84401 3.05719C5.96473 4.64405 3.29105 6.89217 0.863831 9.76017C2.02191 10.5842 3.22824 11.3382 4.47637 12.0181C8.57464 7.3471 13.3032 4.8151 18.5719 4.48053C20.5475 4.36063 22.5295 4.55069 24.4463 5.04382Z" fill="#59B2FF"/>
</svg>
