<svg width="31" height="38" viewBox="0 0 31 38" fill="none" xmlns="http://www.w3.org/2000/svg">
<path d="M28.2393 37.8084C28.5208 37.8129 28.8002 37.7613 29.0615 37.6566C29.3228 37.552 29.5606 37.3965 29.7612 37.199C29.9617 37.0016 30.121 36.7662 30.2297 36.5066C30.3384 36.247 30.3944 35.9684 30.3943 35.6869C30.3943 35.4055 30.3383 35.1269 30.2295 34.8673C30.1207 34.6077 29.9614 34.3724 29.7608 34.175C29.5602 33.9776 29.3223 33.8221 29.061 33.7175C28.7997 33.613 28.5202 33.5615 28.2388 33.566C27.0798 33.5835 26.1496 34.5283 26.1497 35.6875C26.1499 36.8466 27.0804 37.791 28.2393 37.8084ZM2.6935 4.24281C2.97439 4.24646 3.25321 4.19428 3.51378 4.08931C3.77435 3.98435 4.01148 3.82867 4.21141 3.63133C4.41133 3.43398 4.57007 3.1989 4.67842 2.93972C4.78677 2.68053 4.84256 2.40241 4.84256 2.12149C4.84256 1.84057 4.78677 1.56245 4.67842 1.30327C4.57007 1.04409 4.41133 0.809 4.21141 0.611656C4.01148 0.414312 3.77435 0.258638 3.51378 0.15367C3.25321 0.0487018 2.97439 -0.00347109 2.6935 0.000179118C1.53433 0.0179105 0.604065 0.962328 0.604065 2.12149C0.604065 3.28066 1.53433 4.22525 2.6935 4.24281Z" fill="#FFCD59"/>
</svg>
